<svg xmlns="http://www.w3.org/2000/svg" viewBox="0 0 13 14" width="13" height="14">
	<style>
		tspan { white-space:pre }
		.shp0 { fill: #ffffff } 
	</style>
	<path id="Clock Icon" class="shp0" d="M8.16 10L5.5 7.35L5.5 3.79L7.11 3.79L7.11 6.68L9.3 8.86L8.16 10ZM6.31 0.57C2.75 0.57 -0.13 3.46 -0.13 7.01C-0.13 10.57 2.75 13.45 6.31 13.45C9.87 13.45 12.75 10.57 12.75 7.01C12.75 3.46 9.87 0.57 6.31 0.57M6.31 11.84C3.64 11.84 1.48 9.68 1.48 7.01C1.48 4.34 3.64 2.18 6.31 2.18C8.98 2.18 11.14 4.34 11.14 7.01C11.14 9.68 8.98 11.84 6.31 11.84" />
</svg>