<svg xmlns="http://www.w3.org/2000/svg" viewBox="0 0 20 23" width="20" height="23">
	<style>
		tspan { white-space:pre }
		.shp0 { fill: #ffffff } 
	</style>
	<g id="Expand Circle Icon">
		<path id="Icon" class="shp0" d="M1.02 13.98L8.88 21.84C9.5 22.45 10.49 22.45 11.11 21.84L18.97 13.98C19.58 13.36 19.58 12.37 18.97 11.75C18.35 11.14 17.36 11.14 16.75 11.75L11.97 16.35L11.97 1.9C11.75 0.59 10.87 0.29 10 0.29C9.13 0.29 8.25 0.68 8.02 1.86L8.02 16.57L3.25 11.75C2.94 11.45 2.54 11.29 2.14 11.29C1.73 11.29 1.33 11.45 1.02 11.75C0.41 12.37 0.41 13.36 1.02 13.98" />
	</g>
</svg>