<svg xmlns="http://www.w3.org/2000/svg" viewBox="0 0 13 12" width="13" height="12">
	<style>
		tspan { white-space:pre }
		.shp0 { fill: #ffffff } 
	</style>
	<path id="People Icon" class="shp0" d="M7.78 8.41C7.49 8.37 7.48 7.53 7.48 7.53C7.48 7.53 8.34 6.64 8.53 5.45C9.03 5.45 9.34 4.18 8.84 3.73C8.86 3.27 9.49 0.05 6.31 0.05C3.14 0.05 3.77 3.27 3.79 3.74C3.28 4.18 3.59 5.45 4.1 5.45C4.29 6.64 5.15 7.53 5.15 7.53C5.15 7.53 5.14 8.37 4.85 8.41C3.9 8.57 0.39 10.19 0.39 11.96L6.31 11.96L12.24 11.96C12.24 10.19 8.72 8.57 7.78 8.41" />
</svg>