<svg xmlns="http://www.w3.org/2000/svg" viewBox="0 0 13 13" width="13" height="13">
	<style>
		tspan { white-space:pre }
		.shp0 { fill: #ffffff } 
	</style>
	<path id="Tool Icon" class="shp0" d="M13.04 7.7L13.04 5.33L11.22 5.02C11.15 4.8 11.06 4.58 10.96 4.37L12.03 2.88L10.35 1.2L8.85 2.26C8.64 2.16 8.42 2.07 8.2 1.99L7.9 0.18L5.52 0.18L5.22 1.99C4.99 2.07 4.77 2.16 4.56 2.26L3.07 1.2L1.39 2.88L2.46 4.37C2.35 4.58 2.27 4.8 2.19 5.02L0.38 5.33L0.38 7.7L2.2 8.01C2.27 8.23 2.36 8.44 2.46 8.65L1.39 10.15L3.07 11.83L4.58 10.76C4.78 10.86 5 10.95 5.22 11.02L5.52 12.85L7.9 12.85L8.2 11.02C8.42 10.95 8.64 10.86 8.84 10.76L10.35 11.83L12.03 10.15L10.95 8.65C11.06 8.44 11.15 8.23 11.22 8.01L13.04 7.7ZM6.71 8.1C5.83 8.1 5.13 7.39 5.13 6.51C5.13 5.64 5.83 4.93 6.71 4.93C7.58 4.93 8.29 5.64 8.29 6.51C8.29 7.39 7.58 8.1 6.71 8.1" />
</svg>