<svg xmlns="http://www.w3.org/2000/svg" viewBox="0 0 12 12" width="12" height="12">
	<style>
		tspan { white-space:pre }
		.shp0 { fill: #ffffff } 
	</style>
	<path id="X Icon" class="shp0" d="M11.9 9.48L11.9 9.48L8.32 5.9L11.9 2.32C11.93 2.29 11.96 2.24 11.98 2.19C12.03 2.06 12 1.91 11.9 1.8L10.2 0.11C10.1 0.01 9.95 -0.02 9.81 0.03C9.77 0.05 9.72 0.07 9.68 0.11L6.1 3.69L2.52 0.11C2.48 0.07 2.44 0.05 2.39 0.03C2.26 -0.02 2.11 0.01 2 0.11L0.31 1.8C0.2 1.91 0.18 2.06 0.23 2.19C0.24 2.24 0.27 2.29 0.31 2.32L3.89 5.9L0.31 9.48C0.27 9.52 0.24 9.57 0.23 9.62C0.18 9.75 0.2 9.9 0.31 10.01L2 11.7C2.11 11.8 2.26 11.83 2.39 11.78C2.44 11.76 2.48 11.74 2.52 11.7L6.1 8.12L9.68 11.7C9.72 11.74 9.77 11.76 9.81 11.78C9.95 11.83 10.1 11.8 10.2 11.7L11.9 10.01C12 9.9 12.03 9.75 11.98 9.62C11.96 9.57 11.93 9.52 11.9 9.48" />
</svg>