<svg id="Capa_1" enable-background="new 0 0 512 512" height="512" viewBox="0 0 512 512" width="512" xmlns="http://www.w3.org/2000/svg"><g><path d="m512 256c0 14.91-1.28 29.53-3.73 43.74l-17.53 13.92c-144.13 114.39-349.65 108.52-487.01-13.92-1.46-8.42-2.5-16.99-3.1-25.68-.42-5.96-.63-11.99-.63-18.06 0-46.22 12.25-89.57 33.68-127 44.12-77.07 127.16-129 222.32-129s178.2 51.93 222.32 129c12.98 22.67 22.59 47.52 28.15 73.86 3.46 16.36 5.35 33.28 5.52 50.62.01.84.01 1.68.01 2.52z" fill="#92eaff"/><g><path d="m512 256c0 14.91-1.27 29.53-3.73 43.74l-17.53 13.92c-144.13 114.39-349.64 108.52-487-13.91-2.46-14.22-3.74-28.83-3.74-43.75 0-46.22 12.25-89.57 33.68-127 44.12 77.07 127.16 129 222.32 129s178.2-51.93 222.32-129c21.43 37.43 33.68 80.78 33.68 127z" fill="#63dbfa"/></g><g><path d="m503.73 320.78c-6.07 23.28-15.34 45.27-27.31 65.47-17.33 29.28-40.34 54.81-67.5 75.08l-31.5 9.45c-88.41 26.51-182.95 24.31-270.03-6.31-28.74-20.53-53.07-46.85-71.25-77.27-12.24-20.46-21.7-42.77-27.87-66.42z" fill="#65b2fe"/><path d="m503.73 320.78c-6.07 23.28-15.34 45.27-27.31 65.47-17.31 29.24-40.28 54.75-67.4 75-.03.02-.07.05-.1.08h-.01l-31.49 9.45c-44.38 13.31-90.3 19.38-136.05 18.25l-.09-168.25z" fill="#159de4"/><g><path d="m508.27 299.74c-1.22 7.12-2.74 14.14-4.55 21.04h-495.45c-1.8-6.9-3.32-13.92-4.54-21.04z" fill="#c5f2f9"/><path d="m508.27 299.74c-1.22 7.12-2.74 14.14-4.55 21.04h-262.32l-.01-21.04z" fill="#92eaff"/><path d="m457.25 320.78-125.33 179.77c-23.99 7.44-49.49 11.45-75.92 11.45-4.91 0-9.78-.14-14.62-.42-17.94-1.01-35.38-3.87-52.14-8.38h-.01l-119.23-182.42 72.41-90.34h45.54v-45.57l53.22-61.24 29.48 31.79 72.81 78.53 30.91-30.91 56.48 56.48v38.48z" fill="#fff"/><path d="m457.25 320.78-125.33 179.77c-23.99 7.44-49.49 11.45-75.92 11.45-4.91 0-9.78-.14-14.62-.42l-.1-190.8-.08-135.91-.03-61.24 29.48 31.79 72.81 78.53 30.91-30.91 56.48 56.48v38.48z" fill="#dff7fd"/><path d="m457.25 320.78-125.33 179.77c-23.99 7.44-49.49 11.45-75.92 11.45-4.91 0-9.78-.14-14.62-.42-17.94-1.01-35.39-3.87-52.15-8.38l-77.74-118.94-41.49-63.48z" fill="#c5f2f9"/><path d="m457.25 320.78-88.72 127.25-36.61 52.52c-23.99 7.44-49.49 11.45-75.92 11.45-4.91 0-9.78-.14-14.62-.42l-.1-190.8z" fill="#92eaff"/></g><path d="m430.85 259.52-56.48 34.26v-90.74z" fill="#c5f2f9"/><path d="m187.95 230.44v80.56l-45.54-80.56z" fill="#dff7fd"/><path d="m241.2 184.87h-53.25l53.22-61.24z" fill="#dff7fd"/><path d="m270.65 155.42-29.45 29.45-.03-61.24z" fill="#c5f2f9"/><path d="m457.25 320.78-88.72 127.25-127.25-127.25z" fill="#63dbfa"/><path d="m408.92 461.33c-42.66 31.83-95.59 50.67-152.92 50.67-4.91 0-9.78-.14-14.62-.42-49.8-2.8-95.8-19.84-133.99-47.11l148.61-1.55z" fill="#63dbfa"/><path d="m409.02 461.25c-42.68 31.88-95.65 50.75-153.02 50.75-4.91 0-9.78-.14-14.62-.42l-.03-48.66z" fill="#3dcaea"/><path d="m241.28 320.78-65.52 65.52-33.16-33.15-31.11 31.11-41.49-63.48z" fill="#92eaff"/><g><path d="m152.902 154.462c0-.063.005-.124.005-.187 0-11.457-9.288-20.745-20.745-20.745-2.722 0-5.319.529-7.7 1.483-4.6-8.241-13.402-13.817-23.511-13.817-13.127 0-24.053 9.401-26.428 21.836-.708-.102-1.431-.157-2.167-.157-7.137 0-13.117 4.941-14.715 11.587z" fill="#fff"/><path d="m132.662 154.462c0-.036.003-.071.003-.108 0-6.588-5.341-11.929-11.929-11.929-1.565 0-3.058.304-4.428.852-2.645-4.739-7.707-7.945-13.519-7.945-7.548 0-13.831 5.406-15.196 12.556-.407-.058-.823-.09-1.246-.09-4.104 0-7.542 2.841-8.462 6.663h54.777z" fill="#dff7fd"/></g><g><path d="m320.022 154.462c0-.063-.005-.124-.005-.187 0-11.457 9.288-20.745 20.745-20.745 2.722 0 5.319.529 7.7 1.483 4.6-8.241 13.402-13.817 23.511-13.817 13.127 0 24.053 9.401 26.428 21.836.708-.102 1.431-.157 2.167-.157 7.137 0 13.117 4.941 14.715 11.587z" fill="#fff"/><path d="m340.263 154.462c0-.036-.003-.071-.003-.108 0-6.588 5.341-11.929 11.929-11.929 1.565 0 3.059.304 4.428.852 2.645-4.739 7.707-7.945 13.519-7.945 7.548 0 13.831 5.406 15.197 12.556.407-.058.823-.09 1.246-.09 4.104 0 7.542 2.841 8.462 6.663h-54.778z" fill="#dff7fd"/></g><g><path d="m293.61 71.63c.001-.075.006-.148.006-.223 0-13.666-11.078-24.744-24.744-24.744-3.247 0-6.344.632-9.185 1.768-5.487-9.83-15.986-16.481-28.043-16.481-15.658 0-28.69 11.213-31.523 26.046-.844-.121-1.707-.187-2.584-.187-8.513 0-15.646 5.893-17.552 13.821z" fill="#fff"/><path d="m269.467 71.63c0-.043.003-.085.003-.128 0-7.858-6.37-14.229-14.229-14.229-1.867 0-3.648.363-5.282 1.017-3.155-5.653-9.192-9.477-16.126-9.477-9.004 0-16.497 6.448-18.126 14.977-.485-.07-.981-.108-1.486-.108-4.895 0-8.997 3.389-10.093 7.948z" fill="#dff7fd"/></g></g></g></svg>